<svg width="86" height="81" viewBox="0 0 86 81" fill="none" xmlns="http://www.w3.org/2000/svg">
<rect width="86" height="81" rx="20" fill="#292929"/>
<path d="M61.5603 42.9857C62.2963 42.9857 62.8243 43.1457 63.1443 43.4657C63.4963 43.7857 63.6723 44.2017 63.6723 44.7137C63.6723 45.5457 63.4163 46.2817 62.9043 46.9217C62.4243 47.5617 61.6563 47.8977 60.6003 47.9297C58.0403 47.9937 55.7683 47.8017 53.7843 47.3537C51.5123 52.1217 48.7603 56.0897 45.5283 59.2577C42.3283 62.3937 39.1123 63.9617 35.8803 63.9617C32.5523 63.9617 30.0723 62.0257 28.4403 58.1537C26.8083 54.2817 25.9923 49.0497 25.9923 42.4577C25.9923 36.8257 26.3923 31.7697 27.1923 27.2897C27.4803 25.6257 27.8803 24.5057 28.3923 23.9297C28.9363 23.3217 29.8483 23.0177 31.1283 23.0177C33.2403 23.0177 34.2963 23.9297 34.2963 25.7537C34.2963 25.9457 34.2643 26.2977 34.2003 26.8097C33.2403 32.5697 32.7603 37.7857 32.7603 42.4577C32.7603 47.3537 33.1603 51.0817 33.9603 53.6417C34.7923 56.1697 36.0243 57.4337 37.6563 57.4337C39.3203 57.4337 41.1283 56.2817 43.0803 53.9777C45.0323 51.6737 46.8243 48.7777 48.4563 45.2897C46.5043 44.0737 45.0323 42.5057 44.0403 40.5857C43.0483 38.6337 42.5523 36.3937 42.5523 33.8657C42.5523 31.3377 42.9363 29.2097 43.7043 27.4817C44.5043 25.7217 45.5763 24.4097 46.9203 23.5457C48.2963 22.6817 49.8163 22.2497 51.4803 22.2497C53.5283 22.2497 55.1443 22.9857 56.3283 24.4577C57.5443 25.9297 58.1523 27.9457 58.1523 30.5057C58.1523 34.1857 57.3523 38.2017 55.7523 42.5537C57.4483 42.8417 59.3843 42.9857 61.5603 42.9857ZM47.4003 33.5297C47.4003 36.6657 48.4083 38.9857 50.4243 40.4897C51.6723 36.9057 52.2963 33.9457 52.2963 31.6097C52.2963 30.2657 52.1203 29.2897 51.7683 28.6817C51.4163 28.0417 50.9363 27.7217 50.3283 27.7217C49.4643 27.7217 48.7603 28.2337 48.2163 29.2577C47.6723 30.2497 47.4003 31.6737 47.4003 33.5297Z" fill="white"/>
</svg>
