<svg width="1277" height="808" viewBox="0 0 1277 808" fill="none" xmlns="http://www.w3.org/2000/svg">
<rect x="0.5" y="0.5" width="1276" height="807" fill="white"/>
<rect x="0.5" y="0.5" width="1276" height="807" stroke="black"/>
<path d="M215.633 434.695C208.062 450.818 215.25 470.707 233.026 471.828C240.651 472.308 248.352 471.786 255.929 470.236C274.151 466.509 290.678 457.042 303.06 443.237C315.441 429.433 323.016 412.028 324.661 393.605C326.306 375.182 321.933 356.722 312.192 340.965C302.45 325.208 287.859 312.994 270.582 306.134C253.306 299.274 234.266 298.134 216.286 302.884C198.307 307.634 182.347 318.02 170.775 332.501C166.001 338.474 162.08 345.012 159.078 351.93C151.974 368.299 166.506 383.729 184.342 384.292L202.687 384.871C210.381 385.113 216.552 378.472 221.357 372.458V372.458C224.287 368.793 228.326 366.164 232.877 364.962C237.428 363.76 242.248 364.048 246.621 365.784C250.994 367.521 254.687 370.613 257.153 374.601C259.619 378.589 260.725 383.262 260.309 387.925C259.893 392.588 257.975 396.994 254.841 400.488C251.707 403.982 247.524 406.378 242.912 407.322V407.322C235.326 408.873 226.577 411.39 223.286 418.398L215.633 434.695Z" fill="#9747FF"/>
<path d="M207.167 399.578C215.114 400.154 219.832 408.725 216.067 415.747L196.051 453.08C191.929 460.768 180.926 460.829 176.719 453.187L154.486 412.794C150.279 405.152 156.217 395.888 164.917 396.519L207.167 399.578Z" fill="#FB9901"/>
<path d="M423.48 429.688L413.496 419.832C409.997 422.477 406.093 424.547 401.784 426.04C397.517 427.533 393.016 428.28 388.28 428.28C382.221 428.28 376.525 427.085 371.192 424.696C365.859 422.264 361.165 418.936 357.112 414.712C353.059 410.445 349.88 405.496 347.576 399.864C345.272 394.232 344.12 388.216 344.12 381.816C344.12 375.416 345.272 369.421 347.576 363.832C349.88 358.2 353.059 353.251 357.112 348.984C361.165 344.717 365.859 341.389 371.192 339C376.525 336.568 382.221 335.352 388.28 335.352C394.381 335.352 400.099 336.568 405.432 339C410.765 341.389 415.459 344.717 419.512 348.984C423.565 353.251 426.723 358.2 428.984 363.832C431.288 369.421 432.44 375.416 432.44 381.816C432.44 386.808 431.715 391.565 430.264 396.088C428.813 400.568 426.829 404.707 424.312 408.504L434.488 418.68L423.48 429.688ZM388.28 412.664C390.755 412.664 393.187 412.301 395.576 411.576C397.965 410.808 400.163 409.741 402.168 408.376L394.04 400.248L405.048 389.176L412.664 396.856C414.029 394.637 415.053 392.248 415.736 389.688C416.461 387.128 416.824 384.504 416.824 381.816C416.824 377.549 416.077 373.56 414.584 369.848C413.091 366.136 411.021 362.872 408.376 360.056C405.773 357.197 402.744 354.979 399.288 353.4C395.875 351.779 392.205 350.968 388.28 350.968C384.355 350.968 380.664 351.779 377.208 353.4C373.752 355.021 370.701 357.261 368.056 360.12C365.453 362.936 363.405 366.2 361.912 369.912C360.461 373.624 359.736 377.592 359.736 381.816C359.736 386.04 360.483 390.029 361.976 393.784C363.469 397.496 365.517 400.781 368.12 403.64C370.765 406.456 373.795 408.675 377.208 410.296C380.664 411.875 384.355 412.664 388.28 412.664ZM442.745 403.32V363H458.361V399.224C458.361 401.741 458.98 404.045 460.217 406.136C461.454 408.184 463.097 409.827 465.145 411.064C467.236 412.259 469.518 412.856 471.993 412.856C474.553 412.856 476.857 412.259 478.905 411.064C480.953 409.827 482.596 408.184 483.833 406.136C485.07 404.045 485.689 401.741 485.689 399.224V363H501.305L501.369 427H485.753L485.689 421.176C483.47 423.48 480.846 425.315 477.817 426.68C474.788 428.003 471.545 428.664 468.089 428.664C463.438 428.664 459.193 427.533 455.353 425.272C451.513 422.968 448.441 419.917 446.137 416.12C443.876 412.28 442.745 408.013 442.745 403.32ZM541.34 428.664C535.452 428.664 530.076 427.149 525.212 424.12C520.391 421.091 516.529 417.016 513.628 411.896C510.769 406.776 509.34 401.123 509.34 394.936C509.34 390.285 510.172 385.933 511.836 381.88C513.5 377.784 515.783 374.2 518.684 371.128C521.628 368.013 525.041 365.581 528.924 363.832C532.807 362.083 536.945 361.208 541.34 361.208C546.332 361.208 550.897 362.275 555.036 364.408C559.217 366.499 562.759 369.379 565.66 373.048C568.561 376.717 570.673 380.899 571.996 385.592C573.319 390.285 573.617 395.192 572.892 400.312H526.108C526.705 402.701 527.687 404.856 529.052 406.776C530.417 408.653 532.145 410.168 534.236 411.32C536.327 412.429 538.695 413.005 541.34 413.048C544.071 413.091 546.545 412.451 548.764 411.128C551.025 409.763 552.903 407.928 554.396 405.624L570.332 409.336C567.729 415.011 563.847 419.661 558.684 423.288C553.521 426.872 547.74 428.664 541.34 428.664ZM525.596 388.6H557.084C556.615 386.04 555.612 383.736 554.076 381.688C552.583 379.597 550.727 377.933 548.508 376.696C546.289 375.459 543.9 374.84 541.34 374.84C538.78 374.84 536.412 375.459 534.236 376.696C532.06 377.891 530.204 379.533 528.668 381.624C527.175 383.672 526.151 385.997 525.596 388.6ZM602.685 428.152C599.357 427.939 596.136 427.277 593.021 426.168C589.949 425.016 587.218 423.459 584.829 421.496C582.44 419.533 580.605 417.187 579.325 414.456L592.509 408.824C593.021 409.677 593.853 410.595 595.005 411.576C596.157 412.515 597.522 413.304 599.101 413.944C600.722 414.584 602.493 414.904 604.413 414.904C606.034 414.904 607.57 414.691 609.021 414.264C610.514 413.795 611.709 413.091 612.605 412.152C613.544 411.213 614.013 409.997 614.013 408.504C614.013 406.925 613.458 405.709 612.349 404.856C611.282 403.96 609.917 403.299 608.253 402.872C606.632 402.403 605.053 401.976 603.517 401.592C599.464 400.781 595.688 399.523 592.189 397.816C588.733 396.109 585.938 393.912 583.805 391.224C581.714 388.493 580.669 385.208 580.669 381.368C580.669 377.144 581.778 373.496 583.997 370.424C586.258 367.352 589.181 364.984 592.765 363.32C596.392 361.656 600.296 360.824 604.477 360.824C609.554 360.824 614.205 361.891 618.429 364.024C622.696 366.115 626.066 369.08 628.541 372.92L616.189 380.216C615.592 379.192 614.76 378.253 613.693 377.4C612.626 376.504 611.41 375.779 610.045 375.224C608.68 374.627 607.25 374.285 605.757 374.2C603.837 374.115 602.088 374.285 600.509 374.712C598.93 375.139 597.65 375.864 596.669 376.888C595.73 377.912 595.261 379.277 595.261 380.984C595.261 382.605 595.901 383.821 597.181 384.632C598.461 385.4 599.997 385.997 601.789 386.424C603.624 386.851 605.373 387.32 607.037 387.832C610.792 389.069 614.312 390.584 617.597 392.376C620.925 394.168 623.592 396.365 625.597 398.968C627.602 401.571 628.562 404.685 628.477 408.312C628.477 412.451 627.24 416.077 624.765 419.192C622.29 422.264 619.09 424.611 615.165 426.232C611.282 427.853 607.122 428.493 602.685 428.152ZM673.734 378.616H661.318V427H645.702V378.616H636.23V363H645.702V342.904H661.318V363H673.734V378.616ZM684.305 363H699.921V427H684.305V363ZM692.241 354.744C689.937 354.744 687.996 353.997 686.417 352.504C684.838 350.968 684.049 349.048 684.049 346.744C684.049 344.483 684.838 342.584 686.417 341.048C687.996 339.512 689.916 338.744 692.177 338.744C694.438 338.744 696.337 339.512 697.873 341.048C699.452 342.584 700.241 344.483 700.241 346.744C700.241 349.048 699.473 350.968 697.937 352.504C696.401 353.997 694.502 354.744 692.241 354.744ZM741.965 428.664C736.077 428.664 730.701 427.149 725.837 424.12C721.016 421.091 717.154 417.037 714.253 411.96C711.394 406.84 709.965 401.187 709.965 395C709.965 390.307 710.797 385.933 712.461 381.88C714.125 377.784 716.408 374.2 719.309 371.128C722.253 368.013 725.666 365.581 729.549 363.832C733.432 362.083 737.57 361.208 741.965 361.208C747.853 361.208 753.208 362.723 758.029 365.752C762.893 368.781 766.754 372.856 769.613 377.976C772.514 383.096 773.965 388.771 773.965 395C773.965 399.651 773.133 404.003 771.469 408.056C769.805 412.109 767.501 415.693 764.557 418.808C761.656 421.88 758.264 424.291 754.381 426.04C750.541 427.789 746.402 428.664 741.965 428.664ZM741.965 413.048C745.08 413.048 747.874 412.216 750.349 410.552C752.824 408.888 754.765 406.691 756.173 403.96C757.624 401.229 758.349 398.243 758.349 395C758.349 391.672 757.602 388.643 756.109 385.912C754.658 383.139 752.674 380.941 750.157 379.32C747.682 377.656 744.952 376.824 741.965 376.824C738.893 376.824 736.12 377.656 733.645 379.32C731.17 380.984 729.208 383.203 727.757 385.976C726.306 388.749 725.581 391.757 725.581 395C725.581 398.371 726.328 401.421 727.821 404.152C729.314 406.883 731.298 409.059 733.773 410.68C736.29 412.259 739.021 413.048 741.965 413.048ZM842.554 386.552V427H826.938V390.648C826.938 388.131 826.319 385.848 825.082 383.8C823.845 381.709 822.181 380.067 820.09 378.872C818.042 377.635 815.759 377.016 813.242 377.016C810.725 377.016 808.421 377.635 806.33 378.872C804.282 380.067 802.639 381.709 801.402 383.8C800.207 385.848 799.61 388.131 799.61 390.648V427H783.994L783.93 363H799.546L799.61 368.696C801.786 366.392 804.389 364.579 807.418 363.256C810.447 361.891 813.711 361.208 817.21 361.208C821.861 361.208 826.106 362.36 829.946 364.664C833.786 366.925 836.837 369.976 839.098 373.816C841.402 377.613 842.554 381.859 842.554 386.552ZM874.185 428.152C870.857 427.939 867.636 427.277 864.521 426.168C861.449 425.016 858.718 423.459 856.329 421.496C853.94 419.533 852.105 417.187 850.825 414.456L864.009 408.824C864.521 409.677 865.353 410.595 866.505 411.576C867.657 412.515 869.022 413.304 870.601 413.944C872.222 414.584 873.993 414.904 875.913 414.904C877.534 414.904 879.07 414.691 880.521 414.264C882.014 413.795 883.209 413.091 884.105 412.152C885.044 411.213 885.513 409.997 885.513 408.504C885.513 406.925 884.958 405.709 883.849 404.856C882.782 403.96 881.417 403.299 879.753 402.872C878.132 402.403 876.553 401.976 875.017 401.592C870.964 400.781 867.188 399.523 863.689 397.816C860.233 396.109 857.438 393.912 855.305 391.224C853.214 388.493 852.169 385.208 852.169 381.368C852.169 377.144 853.278 373.496 855.497 370.424C857.758 367.352 860.681 364.984 864.265 363.32C867.892 361.656 871.796 360.824 875.977 360.824C881.054 360.824 885.705 361.891 889.929 364.024C894.196 366.115 897.566 369.08 900.041 372.92L887.689 380.216C887.092 379.192 886.26 378.253 885.193 377.4C884.126 376.504 882.91 375.779 881.545 375.224C880.18 374.627 878.75 374.285 877.257 374.2C875.337 374.115 873.588 374.285 872.009 374.712C870.43 375.139 869.15 375.864 868.169 376.888C867.23 377.912 866.761 379.277 866.761 380.984C866.761 382.605 867.401 383.821 868.681 384.632C869.961 385.4 871.497 385.997 873.289 386.424C875.124 386.851 876.873 387.32 878.537 387.832C882.292 389.069 885.812 390.584 889.097 392.376C892.425 394.168 895.092 396.365 897.097 398.968C899.102 401.571 900.062 404.685 899.977 408.312C899.977 412.451 898.74 416.077 896.265 419.192C893.79 422.264 890.59 424.611 886.665 426.232C882.782 427.853 878.622 428.493 874.185 428.152ZM940.882 337.4H958.866L991.442 427H974.866L969.106 411.128H930.706L924.946 427H908.37L940.882 337.4ZM936.402 395.512H963.346L949.842 358.584L936.402 395.512ZM1002.18 427V337.4H1034.18C1039.04 337.4 1043.44 338.616 1047.36 341.048C1051.33 343.48 1054.47 346.744 1056.77 350.84C1059.08 354.936 1060.23 359.437 1060.23 364.344C1060.23 369.379 1059.03 373.944 1056.64 378.04C1054.3 382.093 1051.14 385.336 1047.17 387.768C1043.2 390.157 1038.87 391.352 1034.18 391.352H1017.8V427H1002.18ZM1017.8 375.736H1032.52C1034.73 375.736 1036.76 375.181 1038.6 374.072C1040.43 372.963 1041.88 371.469 1042.95 369.592C1044.06 367.715 1044.61 365.624 1044.61 363.32C1044.61 360.973 1044.06 358.861 1042.95 356.984C1041.88 355.107 1040.43 353.613 1038.6 352.504C1036.76 351.395 1034.73 350.84 1032.52 350.84H1017.8V375.736ZM1073.85 427V337.4H1089.47V427H1073.85Z" fill="#2D2D2D"/>
<path d="M559.16 488V462.8H573.938V465.824H562.184V472.988H572.21V476.012H562.184V488H559.16ZM582.725 488.468C581.069 488.468 579.557 488.042 578.189 487.19C576.833 486.338 575.747 485.198 574.931 483.77C574.127 482.33 573.725 480.74 573.725 479C573.725 477.68 573.959 476.45 574.427 475.31C574.895 474.158 575.537 473.15 576.353 472.286C577.181 471.41 578.141 470.726 579.233 470.234C580.325 469.742 581.489 469.496 582.725 469.496C584.081 469.496 585.323 469.772 586.451 470.324C587.591 470.864 588.563 471.62 589.367 472.592C590.183 473.564 590.789 474.692 591.185 475.976C591.593 477.26 591.743 478.634 591.635 480.098H576.947C577.091 481.118 577.427 482.03 577.955 482.834C578.483 483.626 579.155 484.256 579.971 484.724C580.799 485.192 581.717 485.432 582.725 485.444C583.805 485.444 584.783 485.168 585.659 484.616C586.535 484.052 587.243 483.284 587.783 482.312L590.861 483.032C590.141 484.628 589.055 485.936 587.603 486.956C586.151 487.964 584.525 488.468 582.725 488.468ZM576.857 477.722H588.593C588.497 476.714 588.173 475.796 587.621 474.968C587.069 474.128 586.367 473.456 585.515 472.952C584.663 472.448 583.733 472.196 582.725 472.196C581.717 472.196 580.793 472.442 579.953 472.934C579.113 473.426 578.417 474.092 577.865 474.932C577.325 475.76 576.989 476.69 576.857 477.722ZM603.781 473.024H599.695L599.677 488H596.653L596.671 473.024H593.575V470H596.671L596.653 464.348H599.677L599.695 470H603.781V473.024ZM618.953 483.248L621.653 484.706C620.837 485.846 619.799 486.758 618.539 487.442C617.291 488.126 615.935 488.468 614.471 488.468C612.815 488.468 611.303 488.042 609.935 487.19C608.579 486.338 607.493 485.198 606.677 483.77C605.873 482.33 605.471 480.74 605.471 479C605.471 477.68 605.705 476.45 606.173 475.31C606.641 474.158 607.283 473.15 608.099 472.286C608.927 471.41 609.887 470.726 610.979 470.234C612.071 469.742 613.235 469.496 614.471 469.496C615.935 469.496 617.291 469.838 618.539 470.522C619.799 471.206 620.837 472.124 621.653 473.276L618.953 474.734C618.377 474.026 617.693 473.48 616.901 473.096C616.109 472.712 615.299 472.52 614.471 472.52C613.355 472.52 612.341 472.82 611.429 473.42C610.529 474.008 609.815 474.794 609.287 475.778C608.759 476.762 608.495 477.836 608.495 479C608.495 480.164 608.759 481.238 609.287 482.222C609.827 483.194 610.547 483.974 611.447 484.562C612.359 485.15 613.367 485.444 614.471 485.444C615.359 485.444 616.193 485.24 616.973 484.832C617.753 484.424 618.413 483.896 618.953 483.248ZM640.498 476.804V488H637.474V477.47C637.474 476.558 637.252 475.73 636.808 474.986C636.364 474.242 635.77 473.654 635.026 473.222C634.282 472.778 633.454 472.556 632.542 472.556C631.642 472.556 630.814 472.778 630.058 473.222C629.314 473.654 628.72 474.242 628.276 474.986C627.832 475.73 627.61 476.558 627.61 477.47V488H624.586V461H627.61V472.25C628.246 471.41 629.05 470.744 630.022 470.252C630.994 469.748 632.05 469.496 633.19 469.496C634.534 469.496 635.758 469.826 636.862 470.486C637.978 471.134 638.86 472.01 639.508 473.114C640.168 474.218 640.498 475.448 640.498 476.804ZM664.428 488.468C662.688 488.468 661.062 488.132 659.55 487.46C658.05 486.776 656.736 485.834 655.608 484.634C654.492 483.422 653.616 482.03 652.98 480.458C652.344 478.874 652.026 477.182 652.026 475.382C652.026 473.522 652.356 471.8 653.016 470.216C653.688 468.632 654.6 467.252 655.752 466.076C656.916 464.9 658.242 463.988 659.73 463.34C661.23 462.68 662.814 462.35 664.482 462.35C666.378 462.35 668.184 462.794 669.9 463.682C671.616 464.57 673.092 465.854 674.328 467.534L671.628 468.992C670.704 467.816 669.606 466.916 668.334 466.292C667.074 465.668 665.778 465.356 664.446 465.356C663.174 465.356 661.968 465.614 660.828 466.13C659.7 466.646 658.698 467.366 657.822 468.29C656.958 469.214 656.28 470.282 655.788 471.494C655.296 472.706 655.05 474.02 655.05 475.436C655.05 476.816 655.296 478.112 655.788 479.324C656.28 480.536 656.952 481.604 657.804 482.528C658.668 483.44 659.67 484.154 660.81 484.67C661.95 485.186 663.168 485.444 664.464 485.444C665.496 485.444 666.474 485.27 667.398 484.922C668.334 484.574 669.192 484.082 669.972 483.446C670.764 482.81 671.436 482.06 671.988 481.196C672.552 480.332 672.978 479.384 673.266 478.352H667.056V475.652H676.794C676.782 477.416 676.446 479.072 675.786 480.62C675.138 482.168 674.244 483.53 673.104 484.706C671.976 485.882 670.668 486.806 669.18 487.478C667.704 488.138 666.12 488.468 664.428 488.468ZM694.942 488H691.468L686.68 479.738L683.368 483.698V488H680.344V461H683.368V479L690.91 470H694.852L688.732 477.29L694.942 488ZM729.382 488.522L726.43 485.57C725.398 486.458 724.228 487.154 722.92 487.658C721.624 488.15 720.25 488.396 718.798 488.396C717.082 488.396 715.474 488.06 713.974 487.388C712.474 486.704 711.154 485.768 710.014 484.58C708.874 483.38 707.98 481.988 707.332 480.404C706.696 478.82 706.378 477.128 706.378 475.328C706.378 473.528 706.696 471.842 707.332 470.27C707.98 468.686 708.874 467.294 710.014 466.094C711.154 464.894 712.474 463.958 713.974 463.286C715.474 462.602 717.082 462.26 718.798 462.26C720.514 462.26 722.116 462.602 723.604 463.286C725.104 463.958 726.424 464.894 727.564 466.094C728.704 467.294 729.592 468.686 730.228 470.27C730.876 471.842 731.2 473.528 731.2 475.328C731.2 476.864 730.96 478.316 730.48 479.684C730.012 481.052 729.358 482.294 728.518 483.41L731.524 486.38L729.382 488.522ZM718.798 485.372C719.782 485.372 720.748 485.204 721.696 484.868C722.644 484.52 723.49 484.022 724.234 483.374L720.886 480.044L723.027 477.884L726.268 481.16C726.892 480.332 727.366 479.42 727.69 478.424C728.014 477.416 728.176 476.384 728.176 475.328C728.176 473.948 727.93 472.652 727.438 471.44C726.958 470.228 726.286 469.16 725.422 468.236C724.558 467.312 723.556 466.592 722.416 466.076C721.288 465.548 720.082 465.284 718.798 465.284C717.49 465.284 716.266 465.554 715.126 466.094C713.998 466.622 713.002 467.354 712.138 468.29C711.286 469.214 710.614 470.282 710.122 471.494C709.642 472.694 709.402 473.972 709.402 475.328C709.402 476.708 709.648 478.004 710.14 479.216C710.632 480.428 711.31 481.502 712.174 482.438C713.038 483.362 714.034 484.082 715.162 484.598C716.302 485.114 717.514 485.372 718.798 485.372ZM734.116 481.16V470H737.14V480.494C737.14 481.406 737.362 482.234 737.806 482.978C738.25 483.722 738.844 484.316 739.588 484.76C740.344 485.192 741.172 485.408 742.072 485.408C742.984 485.408 743.806 485.192 744.538 484.76C745.282 484.316 745.876 483.722 746.32 482.978C746.764 482.234 746.986 481.406 746.986 480.494V470H750.01L750.028 488H747.004L746.986 485.714C746.35 486.554 745.546 487.226 744.574 487.73C743.602 488.222 742.552 488.468 741.424 488.468C740.08 488.468 738.85 488.144 737.734 487.496C736.63 486.836 735.748 485.954 735.088 484.85C734.44 483.746 734.116 482.516 734.116 481.16ZM761.389 488.468C759.733 488.468 758.221 488.042 756.853 487.19C755.497 486.338 754.411 485.198 753.595 483.77C752.791 482.33 752.389 480.74 752.389 479C752.389 477.68 752.623 476.45 753.091 475.31C753.559 474.158 754.201 473.15 755.017 472.286C755.845 471.41 756.805 470.726 757.897 470.234C758.989 469.742 760.153 469.496 761.389 469.496C762.745 469.496 763.987 469.772 765.115 470.324C766.255 470.864 767.227 471.62 768.031 472.592C768.847 473.564 769.453 474.692 769.849 475.976C770.257 477.26 770.407 478.634 770.299 480.098H755.611C755.755 481.118 756.091 482.03 756.619 482.834C757.147 483.626 757.819 484.256 758.635 484.724C759.463 485.192 760.381 485.432 761.389 485.444C762.469 485.444 763.447 485.168 764.323 484.616C765.199 484.052 765.907 483.284 766.447 482.312L769.525 483.032C768.805 484.628 767.719 485.936 766.267 486.956C764.815 487.964 763.189 488.468 761.389 488.468ZM755.521 477.722H767.257C767.161 476.714 766.837 475.796 766.285 474.968C765.733 474.128 765.031 473.456 764.179 472.952C763.327 472.448 762.397 472.196 761.389 472.196C760.381 472.196 759.457 472.442 758.617 472.934C757.777 473.426 757.081 474.092 756.529 474.932C755.989 475.76 755.653 476.69 755.521 477.722ZM778.892 488.342C777.92 488.306 776.972 488.126 776.048 487.802C775.136 487.466 774.332 487.016 773.636 486.452C772.952 485.876 772.454 485.216 772.142 484.472L774.734 483.356C774.914 483.764 775.238 484.148 775.706 484.508C776.174 484.868 776.714 485.156 777.326 485.372C777.938 485.588 778.556 485.696 779.18 485.696C779.84 485.696 780.458 485.594 781.034 485.39C781.61 485.186 782.078 484.886 782.438 484.49C782.81 484.082 782.996 483.596 782.996 483.032C782.996 482.432 782.792 481.964 782.384 481.628C781.988 481.28 781.484 481.01 780.872 480.818C780.272 480.614 779.66 480.422 779.036 480.242C777.8 479.93 776.696 479.558 775.724 479.126C774.752 478.682 773.984 478.124 773.42 477.452C772.868 476.768 772.592 475.898 772.592 474.842C772.592 473.726 772.898 472.76 773.51 471.944C774.134 471.128 774.95 470.498 775.958 470.054C776.966 469.61 778.046 469.388 779.198 469.388C780.65 469.388 781.976 469.7 783.176 470.324C784.376 470.948 785.27 471.794 785.858 472.862L783.428 474.284C783.224 473.852 782.912 473.474 782.492 473.15C782.072 472.814 781.592 472.55 781.052 472.358C780.512 472.166 779.96 472.064 779.396 472.052C778.7 472.028 778.046 472.118 777.434 472.322C776.834 472.526 776.348 472.838 775.976 473.258C775.616 473.666 775.436 474.176 775.436 474.788C775.436 475.388 775.628 475.844 776.012 476.156C776.408 476.468 776.918 476.72 777.542 476.912C778.178 477.092 778.868 477.302 779.612 477.542C780.704 477.89 781.724 478.292 782.672 478.748C783.62 479.204 784.382 479.774 784.958 480.458C785.546 481.142 785.834 481.988 785.822 482.996C785.822 484.1 785.492 485.066 784.832 485.894C784.172 486.71 783.314 487.334 782.258 487.766C781.214 488.198 780.092 488.39 778.892 488.342ZM798.23 473.024H794.144L794.126 488H791.102L791.12 473.024H788.024V470H791.12L791.102 464.348H794.126L794.144 470H798.23V473.024ZM801.281 470H804.305V488H801.281V470ZM802.829 467.066C802.349 467.066 801.947 466.91 801.623 466.598C801.299 466.286 801.137 465.896 801.137 465.428C801.137 464.96 801.299 464.57 801.623 464.258C801.947 463.946 802.343 463.79 802.811 463.79C803.279 463.79 803.675 463.946 803.999 464.258C804.323 464.57 804.485 464.96 804.485 465.428C804.485 465.896 804.323 466.286 803.999 466.598C803.687 466.91 803.297 467.066 802.829 467.066ZM816.303 488.468C814.647 488.468 813.135 488.042 811.767 487.19C810.411 486.338 809.325 485.198 808.509 483.77C807.705 482.33 807.303 480.74 807.303 479C807.303 477.68 807.537 476.45 808.005 475.31C808.473 474.158 809.115 473.15 809.931 472.286C810.759 471.41 811.719 470.726 812.811 470.234C813.903 469.742 815.067 469.496 816.303 469.496C817.959 469.496 819.465 469.922 820.821 470.774C822.189 471.626 823.275 472.772 824.079 474.212C824.895 475.652 825.303 477.248 825.303 479C825.303 480.308 825.069 481.532 824.601 482.672C824.133 483.812 823.485 484.82 822.657 485.696C821.841 486.56 820.887 487.238 819.795 487.73C818.715 488.222 817.551 488.468 816.303 488.468ZM816.303 485.444C817.431 485.444 818.445 485.15 819.345 484.562C820.257 483.962 820.971 483.176 821.487 482.204C822.015 481.22 822.279 480.152 822.279 479C822.279 477.824 822.009 476.744 821.469 475.76C820.941 474.776 820.227 473.99 819.327 473.402C818.427 472.814 817.419 472.52 816.303 472.52C815.175 472.52 814.161 472.82 813.261 473.42C812.361 474.008 811.647 474.794 811.119 475.778C810.591 476.762 810.327 477.836 810.327 479C810.327 480.2 810.597 481.292 811.137 482.276C811.677 483.248 812.403 484.022 813.315 484.598C814.227 485.162 815.223 485.444 816.303 485.444ZM844.193 476.804V488H841.169V477.47C841.169 476.558 840.947 475.73 840.503 474.986C840.059 474.242 839.465 473.654 838.721 473.222C837.977 472.778 837.149 472.556 836.237 472.556C835.337 472.556 834.509 472.778 833.753 473.222C833.009 473.654 832.415 474.242 831.971 474.986C831.527 475.73 831.305 476.558 831.305 477.47V488H828.281V470H831.305V472.25C831.941 471.41 832.745 470.744 833.717 470.252C834.689 469.748 835.745 469.496 836.885 469.496C838.229 469.496 839.453 469.826 840.557 470.486C841.673 471.134 842.555 472.01 843.203 473.114C843.863 474.218 844.193 475.448 844.193 476.804ZM853.283 488.342C852.311 488.306 851.363 488.126 850.439 487.802C849.527 487.466 848.723 487.016 848.027 486.452C847.343 485.876 846.845 485.216 846.533 484.472L849.125 483.356C849.305 483.764 849.629 484.148 850.097 484.508C850.565 484.868 851.105 485.156 851.717 485.372C852.329 485.588 852.947 485.696 853.571 485.696C854.231 485.696 854.849 485.594 855.425 485.39C856.001 485.186 856.469 484.886 856.829 484.49C857.201 484.082 857.387 483.596 857.387 483.032C857.387 482.432 857.183 481.964 856.775 481.628C856.379 481.28 855.875 481.01 855.263 480.818C854.663 480.614 854.051 480.422 853.427 480.242C852.191 479.93 851.087 479.558 850.115 479.126C849.143 478.682 848.375 478.124 847.811 477.452C847.259 476.768 846.983 475.898 846.983 474.842C846.983 473.726 847.289 472.76 847.901 471.944C848.525 471.128 849.341 470.498 850.349 470.054C851.357 469.61 852.437 469.388 853.589 469.388C855.041 469.388 856.367 469.7 857.567 470.324C858.767 470.948 859.661 471.794 860.249 472.862L857.819 474.284C857.615 473.852 857.303 473.474 856.883 473.15C856.463 472.814 855.983 472.55 855.443 472.358C854.903 472.166 854.351 472.064 853.787 472.052C853.091 472.028 852.437 472.118 851.825 472.322C851.225 472.526 850.739 472.838 850.367 473.258C850.007 473.666 849.827 474.176 849.827 474.788C849.827 475.388 850.019 475.844 850.403 476.156C850.799 476.468 851.309 476.72 851.933 476.912C852.569 477.092 853.259 477.302 854.003 477.542C855.095 477.89 856.115 478.292 857.063 478.748C858.011 479.204 858.773 479.774 859.349 480.458C859.937 481.142 860.225 481.988 860.213 482.996C860.213 484.1 859.883 485.066 859.223 485.894C858.563 486.71 857.705 487.334 856.649 487.766C855.605 488.198 854.483 488.39 853.283 488.342Z" fill="#2D2D2D"/>
</svg>
